<svg width="65.000000" height="23.252930" viewBox="0 0 65 23.2529" fill="none" xmlns="http://www.w3.org/2000/svg" xmlns:xlink="http://www.w3.org/1999/xlink">
	<desc>
			Created with Pixso.
	</desc>
	<defs>
		<clipPath id="clip30_1">
			<rect id="logo" width="65.000000" height="23.252859" fill="white" fill-opacity="0"/>
		</clipPath>
	</defs>
	<g clip-path="url(#clip30_1)">
		<mask id="mask30_6" mask-type="alpha" maskUnits="userSpaceOnUse" x="-32.524551" y="-30.878906" width="130.098526" height="84.928711">
			<path id="path24" d="M-32.53 -30.88L97.57 -30.88L97.57 54.04L-32.53 54.04L-32.53 -30.88Z" fill="#000000" fill-opacity="1.000000" fill-rule="nonzero"/>
		</mask>
		<g mask="url(#mask30_6)">
			<path id="path30" d="M32.01 12.35C32.59 11.77 32.88 10.98 32.88 10.01C32.88 9 32.59 8.2 32.02 7.62C31.44 7.04 30.61 6.75 29.53 6.75L26.18 6.75L26.18 16.24L27.75 16.24L27.75 13.24L29.64 13.24C30.63 13.24 31.43 12.95 32.01 12.35ZM29.67 8.29C30.75 8.29 31.3 8.87 31.3 10.01C31.3 10.55 31.15 10.97 30.86 11.27C30.57 11.57 30.16 11.71 29.64 11.71L27.74 11.71L27.74 8.29L29.67 8.29ZM17.19 6.77L15.63 6.77L15.63 16.26L17.19 16.26L17.19 6.77ZM49.72 16.41C49.99 16.41 50.26 16.38 50.51 16.31L50.51 15.01C50.38 15.02 50.25 15.03 50.12 15.03C49.73 15.03 49.47 14.94 49.35 14.77C49.25 14.64 49.2 14.37 49.2 13.95L49.2 10.11L50.54 10.11L50.54 8.84L49.2 8.84L49.2 6.78L47.68 6.78L47.68 14.05C47.68 14.92 47.79 15.51 48.01 15.82C48.29 16.22 48.86 16.41 49.72 16.41ZM23.12 16.27L24.66 16.27L24.66 11.46C24.66 10.65 24.43 10.02 24 9.58C23.57 9.12 22.99 8.86 22.26 8.86C20.57 8.86 18.71 9.28 18.71 9.28L18.71 16.27L20.24 16.27L20.24 10.4C20.78 10.29 21.51 10.17 21.97 10.21C22.72 10.27 23.12 10.79 23.12 11.74L23.12 16.27ZM40.12 12.5C40.12 13.64 39.81 14.56 39.18 15.26C38.56 15.95 37.76 16.3 36.77 16.3C35.78 16.3 34.97 15.95 34.36 15.26C33.73 14.56 33.42 13.64 33.42 12.5C33.42 11.36 33.73 10.44 34.36 9.75C34.98 9.06 35.78 8.71 36.77 8.71C37.77 8.71 38.58 9.06 39.2 9.75C39.81 10.45 40.12 11.36 40.12 12.5ZM38.53 12.51C38.53 11.79 38.37 11.22 38.05 10.81C37.73 10.39 37.3 10.18 36.77 10.18C36.24 10.18 35.81 10.39 35.49 10.82C35.16 11.24 35.01 11.8 35.01 12.51C35.01 13.22 35.17 13.79 35.49 14.2C35.81 14.62 36.24 14.83 36.77 14.83C37.3 14.83 37.73 14.62 38.05 14.2C38.37 13.79 38.53 13.22 38.53 12.51ZM45.96 15.58C46.51 15.12 46.78 14.53 46.78 13.82C46.78 12.7 46.11 12.02 44.76 11.76C44.19 11.66 43.62 11.55 43.04 11.46C42.62 11.35 42.42 11.14 42.42 10.84C42.42 10.32 42.87 10.06 43.77 10.06C44.47 10.06 45.1 10.31 45.65 10.82L46.56 9.83C45.8 9.1 44.89 8.74 43.81 8.74C42.93 8.74 42.22 8.96 41.69 9.39C41.15 9.83 40.89 10.38 40.89 11.03C40.89 11.67 41.1 12.15 41.54 12.47C41.92 12.74 42.54 12.93 43.42 13.06C44.15 13.18 44.6 13.27 44.77 13.33C45.06 13.45 45.2 13.65 45.2 13.95C45.2 14.21 45.07 14.43 44.82 14.61C44.57 14.78 44.23 14.87 43.8 14.87C43.03 14.87 42.35 14.58 41.77 14L40.61 15C41.37 15.85 42.44 16.27 43.82 16.27C44.71 16.27 45.42 16.04 45.96 15.58Z" fill="#001509" fill-opacity="1.000000" fill-rule="nonzero"/>
			<path id="path30" d="M32.88 10.01C32.88 9 32.59 8.2 32.02 7.62C31.44 7.04 30.61 6.75 29.53 6.75L26.18 6.75L26.18 16.24L27.75 16.24L27.75 13.24L29.64 13.24C30.63 13.24 31.43 12.95 32.01 12.35C32.59 11.77 32.88 10.98 32.88 10.01ZM31.3 10.01C31.3 10.55 31.15 10.97 30.86 11.27C30.57 11.57 30.16 11.71 29.64 11.71L27.74 11.71L27.74 8.29L29.67 8.29C30.75 8.29 31.3 8.87 31.3 10.01ZM15.63 6.77L15.63 16.26L17.19 16.26L17.19 6.77L15.63 6.77ZM50.51 16.31L50.51 15.01C50.38 15.02 50.25 15.03 50.12 15.03C49.73 15.03 49.47 14.94 49.35 14.77C49.25 14.64 49.2 14.37 49.2 13.95L49.2 10.11L50.54 10.11L50.54 8.84L49.2 8.84L49.2 6.78L47.68 6.78L47.68 14.05C47.68 14.92 47.79 15.51 48.01 15.82C48.29 16.22 48.86 16.41 49.72 16.41C49.99 16.41 50.26 16.38 50.51 16.31ZM24.66 16.27L24.66 11.46C24.66 10.65 24.43 10.02 24 9.58C23.57 9.12 22.99 8.86 22.26 8.86C20.57 8.86 18.71 9.28 18.71 9.28L18.71 16.27L20.24 16.27L20.24 10.4C20.78 10.29 21.51 10.17 21.97 10.21C22.72 10.27 23.12 10.79 23.12 11.74L23.12 16.27L24.66 16.27ZM39.18 15.26C38.56 15.95 37.76 16.3 36.77 16.3C35.78 16.3 34.97 15.95 34.36 15.26C33.73 14.56 33.42 13.64 33.42 12.5C33.42 11.36 33.73 10.44 34.36 9.75C34.98 9.06 35.78 8.71 36.77 8.71C37.77 8.71 38.58 9.06 39.2 9.75C39.81 10.45 40.12 11.36 40.12 12.5C40.12 13.64 39.81 14.56 39.18 15.26ZM38.05 10.81C37.73 10.39 37.3 10.18 36.77 10.18C36.24 10.18 35.81 10.39 35.49 10.82C35.16 11.24 35.01 11.8 35.01 12.51C35.01 13.22 35.17 13.79 35.49 14.2C35.81 14.62 36.24 14.83 36.77 14.83C37.3 14.83 37.73 14.62 38.05 14.2C38.37 13.79 38.53 13.22 38.53 12.51C38.53 11.79 38.37 11.22 38.05 10.81ZM46.78 13.82C46.78 12.7 46.11 12.02 44.76 11.76C44.19 11.66 43.62 11.55 43.04 11.46C42.62 11.35 42.42 11.14 42.42 10.84C42.42 10.32 42.87 10.06 43.77 10.06C44.47 10.06 45.1 10.31 45.65 10.82L46.56 9.83C45.8 9.1 44.89 8.74 43.81 8.74C42.93 8.74 42.22 8.96 41.69 9.39C41.15 9.83 40.89 10.38 40.89 11.03C40.89 11.67 41.1 12.15 41.54 12.47C41.92 12.74 42.54 12.93 43.42 13.06C44.15 13.18 44.6 13.27 44.77 13.33C45.06 13.45 45.2 13.65 45.2 13.95C45.2 14.21 45.07 14.43 44.82 14.61C44.57 14.78 44.23 14.87 43.8 14.87C43.03 14.87 42.35 14.58 41.77 14L40.61 15C41.37 15.85 42.44 16.27 43.82 16.27C44.71 16.27 45.42 16.04 45.96 15.58C46.51 15.12 46.78 14.53 46.78 13.82Z" stroke="#000000" stroke-opacity="0" stroke-width="1.333333"/>
			<path id="path34" d="M5.47 11.59C5.47 11.59 4.25 12.08 2.73 12.08C1.22 12.08 0 11.59 0 11.59C0 11.59 1.22 11.11 2.73 11.11C4.25 11.11 5.47 11.59 5.47 11.59Z" fill="#010214" fill-opacity="1.000000" fill-rule="nonzero"/>
			<path id="path34" d="M2.73 12.08C1.22 12.08 0 11.59 0 11.59C0 11.59 1.22 11.11 2.73 11.11C4.25 11.11 5.47 11.59 5.47 11.59C5.47 11.59 4.25 12.08 2.73 12.08Z" stroke="#000000" stroke-opacity="0" stroke-width="1.333333"/>
			<path id="path38" d="M9.26 4.52C9.26 4.52 8.17 3.77 7.32 2.52C6.48 1.28 6.19 0 6.19 0C6.19 0 7.28 0.74 8.13 1.99C8.97 3.23 9.26 4.52 9.26 4.52Z" fill="#010214" fill-opacity="1.000000" fill-rule="nonzero"/>
			<path id="path38" d="M7.32 2.52C6.48 1.28 6.19 0 6.19 0C6.19 0 7.28 0.74 8.13 1.99C8.97 3.23 9.26 4.52 9.26 4.52C9.26 4.52 8.17 3.77 7.32 2.52Z" stroke="#000000" stroke-opacity="0" stroke-width="1.333333"/>
			<path id="path42" d="M6.48 7.57C6.48 7.57 5.17 7.42 3.84 6.71C2.5 6.01 1.65 5.01 1.65 5.01C1.65 5.01 2.96 5.16 4.29 5.86C5.63 6.57 6.48 7.57 6.48 7.57Z" fill="#010214" fill-opacity="1.000000" fill-rule="nonzero"/>
			<path id="path42" d="M3.84 6.71C2.5 6.01 1.65 5.01 1.65 5.01C1.65 5.01 2.96 5.16 4.29 5.86C5.63 6.57 6.48 7.57 6.48 7.57C6.48 7.57 5.17 7.42 3.84 6.71Z" stroke="#000000" stroke-opacity="0" stroke-width="1.333333"/>
			<path id="path46" d="M9.26 18.65C9.26 18.65 8.17 19.39 7.32 20.64C6.48 21.88 6.19 23.17 6.19 23.17C6.19 23.17 7.28 22.42 8.13 21.17C8.97 19.93 9.26 18.65 9.26 18.65Z" fill="#010214" fill-opacity="1.000000" fill-rule="nonzero"/>
			<path id="path46" d="M7.32 20.64C6.48 21.88 6.19 23.17 6.19 23.17C6.19 23.17 7.28 22.42 8.13 21.17C8.97 19.93 9.26 18.65 9.26 18.65C9.26 18.65 8.17 19.39 7.32 20.64Z" stroke="#000000" stroke-opacity="0" stroke-width="1.333333"/>
			<path id="path50" d="M6.48 15.59C6.48 15.59 5.17 15.74 3.84 16.45C2.5 17.15 1.65 18.15 1.65 18.15C1.65 18.15 2.96 18 4.29 17.3C5.63 16.59 6.48 15.59 6.48 15.59Z" fill="#010214" fill-opacity="1.000000" fill-rule="nonzero"/>
			<path id="path50" d="M3.84 16.45C2.5 17.15 1.65 18.15 1.65 18.15C1.65 18.15 2.96 18 4.29 17.3C5.63 16.59 6.48 15.59 6.48 15.59C6.48 15.59 5.17 15.74 3.84 16.45Z" stroke="#000000" stroke-opacity="0" stroke-width="1.333333"/>
			<path id="path54" d="M9.66 13.91C10.65 16.47 12.23 18.31 15.06 18.74C14.74 18.79 14.41 18.81 14.08 18.81C10.07 18.83 6.8 15.61 6.78 11.62C6.76 7.62 10 4.37 14.01 4.35C14.37 4.35 14.72 4.37 15.06 4.42C11.82 4.83 9.66 7.38 9.23 10.63C9.1 12.61 11.37 13.28 11.37 13.28C11.37 13.28 10.44 13.9 9.66 13.91Z" fill="#010214" fill-opacity="1.000000" fill-rule="nonzero"/>
			<path id="path54" d="M15.06 18.74C14.74 18.79 14.41 18.81 14.08 18.81C10.07 18.83 6.8 15.61 6.78 11.62C6.76 7.62 10 4.37 14.01 4.35C14.37 4.35 14.72 4.37 15.06 4.42C11.82 4.83 9.66 7.38 9.23 10.63C9.1 12.61 11.37 13.28 11.37 13.28C11.37 13.28 10.44 13.9 9.66 13.91C10.65 16.47 12.23 18.31 15.06 18.74Z" stroke="#000000" stroke-opacity="0" stroke-width="1.333333"/>
			<path id="path58" d="M58.1 11.09L55.07 11.09C55.15 10.96 55.26 10.83 55.4 10.69C55.54 10.56 55.71 10.41 55.91 10.26C56.12 10.12 56.33 9.96 56.56 9.8C57 9.49 57.42 9.18 57.81 8.87C57.98 8.73 58.14 8.59 58.29 8.45L58.1 11.09ZM64.63 12.01C64.36 11.52 63.99 11.15 63.52 10.9C63.05 10.65 62.52 10.52 61.93 10.52C61.59 10.52 61.29 10.56 61.03 10.64C60.77 10.71 60.55 10.79 60.37 10.88C60.19 10.97 60.05 11.06 59.94 11.14L60.11 8.82L64.47 8.82L64.47 6.98L59.42 6.98C59.45 6.92 59.48 6.86 59.5 6.8C59.67 6.41 59.75 5.98 59.75 5.51C59.75 5.18 59.7 4.84 59.59 4.49C59.47 4.13 59.28 3.8 59.02 3.5C58.75 3.2 58.4 2.95 57.96 2.77C57.53 2.58 56.98 2.49 56.33 2.49C55.62 2.49 54.98 2.61 54.41 2.83C53.85 3.06 53.4 3.41 53.07 3.88C52.74 4.35 52.58 4.95 52.58 5.68C52.58 5.8 52.58 5.91 52.59 6C52.6 6.09 52.61 6.16 52.62 6.21L54.6 6.21L54.6 5.68C54.6 5.35 54.66 5.07 54.78 4.85C54.9 4.62 55.08 4.45 55.32 4.32C55.55 4.2 55.85 4.14 56.22 4.14C56.57 4.14 56.85 4.2 57.06 4.34C57.28 4.47 57.43 4.64 57.53 4.84C57.63 5.04 57.68 5.24 57.68 5.44C57.68 5.85 57.56 6.24 57.34 6.58C57.11 6.92 56.82 7.24 56.46 7.54C56.1 7.84 55.72 8.15 55.32 8.46C54.96 8.71 54.62 8.98 54.29 9.26C53.95 9.54 53.65 9.84 53.37 10.15C53.1 10.45 52.88 10.79 52.72 11.16C52.57 11.53 52.49 11.94 52.49 12.39L52.49 12.93L59.83 12.93L59.83 12.91C59.93 12.77 60.04 12.65 60.18 12.53C60.32 12.41 60.48 12.31 60.67 12.22C60.87 12.14 61.09 12.09 61.34 12.09C61.67 12.09 61.95 12.16 62.19 12.3C62.43 12.43 62.62 12.63 62.75 12.89C62.88 13.16 62.95 13.48 62.95 13.87C62.95 14.29 62.88 14.64 62.74 14.93C62.61 15.21 62.42 15.43 62.18 15.58C61.94 15.73 61.65 15.8 61.31 15.8C60.97 15.8 60.67 15.73 60.42 15.58C60.16 15.44 59.97 15.23 59.83 14.96L59.83 17.19C60.29 17.34 60.8 17.42 61.37 17.42C62.13 17.42 62.78 17.27 63.33 16.99C63.87 16.71 64.29 16.3 64.59 15.77C64.89 15.24 65.04 14.62 65.04 13.89C65.04 13.13 64.91 12.5 64.63 12.01Z" fill="#010214" fill-opacity="1.000000" fill-rule="nonzero"/>
			<path id="path58" d="M55.07 11.09C55.15 10.96 55.26 10.83 55.4 10.69C55.54 10.56 55.71 10.41 55.91 10.26C56.12 10.12 56.33 9.96 56.56 9.8C57 9.49 57.42 9.18 57.81 8.87C57.98 8.73 58.14 8.59 58.29 8.45L58.1 11.09L55.07 11.09ZM63.52 10.9C63.05 10.65 62.52 10.52 61.93 10.52C61.59 10.52 61.29 10.56 61.03 10.64C60.77 10.71 60.55 10.79 60.37 10.88C60.19 10.97 60.05 11.06 59.94 11.14L60.11 8.82L64.47 8.82L64.47 6.98L59.42 6.98C59.45 6.92 59.48 6.86 59.5 6.8C59.67 6.41 59.75 5.98 59.75 5.51C59.75 5.18 59.7 4.84 59.59 4.49C59.47 4.13 59.28 3.8 59.02 3.5C58.75 3.2 58.4 2.95 57.96 2.77C57.53 2.58 56.98 2.49 56.33 2.49C55.62 2.49 54.98 2.61 54.41 2.83C53.85 3.06 53.4 3.41 53.07 3.88C52.74 4.35 52.58 4.95 52.58 5.68C52.58 5.8 52.58 5.91 52.59 6C52.6 6.09 52.61 6.16 52.62 6.21L54.6 6.21L54.6 5.68C54.6 5.35 54.66 5.07 54.78 4.85C54.9 4.62 55.08 4.45 55.32 4.32C55.55 4.2 55.85 4.14 56.22 4.14C56.57 4.14 56.85 4.2 57.06 4.34C57.28 4.47 57.43 4.64 57.53 4.84C57.63 5.04 57.68 5.24 57.68 5.44C57.68 5.85 57.56 6.24 57.34 6.58C57.11 6.92 56.82 7.24 56.46 7.54C56.1 7.84 55.72 8.15 55.32 8.46C54.96 8.71 54.62 8.98 54.29 9.26C53.95 9.54 53.65 9.84 53.37 10.15C53.1 10.45 52.88 10.79 52.72 11.16C52.57 11.53 52.49 11.94 52.49 12.39L52.49 12.93L59.83 12.93L59.83 12.91C59.93 12.77 60.04 12.65 60.18 12.53C60.32 12.41 60.48 12.31 60.67 12.22C60.87 12.14 61.09 12.09 61.34 12.09C61.67 12.09 61.95 12.16 62.19 12.3C62.43 12.43 62.62 12.63 62.75 12.89C62.88 13.16 62.95 13.48 62.95 13.87C62.95 14.29 62.88 14.64 62.74 14.93C62.61 15.21 62.42 15.43 62.18 15.58C61.94 15.73 61.65 15.8 61.31 15.8C60.97 15.8 60.67 15.73 60.42 15.58C60.16 15.44 59.97 15.23 59.83 14.96L59.83 17.19C60.29 17.34 60.8 17.42 61.37 17.42C62.13 17.42 62.78 17.27 63.33 16.99C63.87 16.71 64.29 16.3 64.59 15.77C64.89 15.24 65.04 14.62 65.04 13.89C65.04 13.13 64.91 12.5 64.63 12.01C64.36 11.52 63.99 11.15 63.52 10.9Z" stroke="#000000" stroke-opacity="0" stroke-width="1.333333"/>
			<path id="path62" d="M52.46 16.6L52.46 13.92L53.04 13.92L53.04 16.1L54.37 16.1L54.37 16.6L52.46 16.6Z" fill="#001509" fill-opacity="1.000000" fill-rule="nonzero"/>
			<path id="path62" d="M52.46 13.92L53.04 13.92L53.04 16.1L54.37 16.1L54.37 16.6L52.46 16.6L52.46 13.92Z" stroke="#000000" stroke-opacity="0" stroke-width="1.333333"/>
			<path id="path66" d="M55.41 15.6L56.23 15.6L56 14.94C55.99 14.91 55.98 14.88 55.96 14.84C55.95 14.8 55.93 14.75 55.92 14.7C55.9 14.65 55.89 14.61 55.87 14.56C55.86 14.51 55.85 14.47 55.83 14.43L55.81 14.43C55.8 14.48 55.78 14.53 55.76 14.6C55.74 14.67 55.72 14.73 55.7 14.79C55.68 14.85 55.66 14.9 55.65 14.94L55.41 15.6ZM54.47 16.6L55.48 13.92L56.19 13.92L57.21 16.6L56.59 16.6L56.4 16.07L55.25 16.07L55.06 16.6L54.47 16.6Z" fill="#001509" fill-opacity="1.000000" fill-rule="nonzero"/>
			<path id="path66" d="M56.23 15.6L56 14.94C55.99 14.91 55.98 14.88 55.96 14.84C55.95 14.8 55.93 14.75 55.92 14.7C55.9 14.65 55.89 14.61 55.87 14.56C55.86 14.51 55.85 14.47 55.83 14.43L55.81 14.43C55.8 14.48 55.78 14.53 55.76 14.6C55.74 14.67 55.72 14.73 55.7 14.79C55.68 14.85 55.66 14.9 55.65 14.94L55.41 15.6L56.23 15.6ZM55.48 13.92L56.19 13.92L57.21 16.6L56.59 16.6L56.4 16.07L55.25 16.07L55.06 16.6L54.47 16.6L55.48 13.92Z" stroke="#000000" stroke-opacity="0" stroke-width="1.333333"/>
			<path id="path70" d="M57.85 16.6L57.85 14.41L57 14.41L57 13.92L59.28 13.92L59.28 14.41L58.43 14.41L58.43 16.6L57.85 16.6Z" fill="#001509" fill-opacity="1.000000" fill-rule="nonzero"/>
			<path id="path70" d="M57.85 14.41L57 14.41L57 13.92L59.28 13.92L59.28 14.41L58.43 14.41L58.43 16.6L57.85 16.6L57.85 14.41Z" stroke="#000000" stroke-opacity="0" stroke-width="1.333333"/>
		</g>
	</g>
</svg>
